# xmcd
#
# Track frame offsets:
#	150
#	17781
#	31316
#	48902
#	63142
#	75734
#	93606
#	113684
#	128563
#	147182
#	163597
#	184026
#	197974
#	212341
#
# Disc length: 3008 seconds
#
# Revision: 3
# Processed by: cddbd v1.4PL0 Copyright (c) Steve Scherf et al.
# Submitted via: MusicWizard 6.0.2
#
DISCID=b40bbe0e
DTITLE=Ilse DeLange - World Of Hurt
DYEAR=1998
DGENRE=Country
TTITLE0=Flying Blind
TTITLE1=Lonely Too
TTITLE2=Just Like The Moon
TTITLE3=What Does Your Heart Say Now
TTITLE4=I'd Be Yours
TTITLE5=World Of Hurt
TTITLE6=All The Woman You'll Ever Need
TTITLE7=If You Had The Heart
TTITLE8=Flying Solo
TTITLE9=Old Tears
TTITLE10=I'm Not So Tough
TTITLE11=When We Don't Talk
TTITLE12=Tap Dancing On The Highwire
TTITLE13=You Are The Dream
EXTD=
EXTT0=Rob Crosby/Shelly Bauerly/Ilse DeLange\n
EXTT1=Bruce Robison
EXTT2=Tia Sillers/Kim Richey
EXTT3=Rob Crosby/Ilse DeLange
EXTT4=Philip Coleman
EXTT5=Bill Lloyd/Beth Nielsen-Chapman
EXTT6=Eric Silver/Stephanie Bentley
EXTT7=Bob Morrison/Michael Huffman/Donny Kees
EXTT8=Robin Lerner/Stephen Allen Davis
EXTT9=Allen Rich/Doug Millett/Beth Nielsen-Chapman
EXTT10=Hillary Lindsey/Bruce Bouton/Robert Ellis Orrall
EXTT11=Rob Crosby/Ilse DeLange
EXTT12=Georgia Middleman
EXTT13=Liz Hengber/Rob Crosby/Ilse DeLange
PLAYORDER=
